<?xml version="1.0" encoding="UTF-8"?>
<svg xmlns:inkscape="http://www.inkscape.org/namespaces/inkscape" version="1.1" viewBox="0 0 850.394 354.331" width="850.394pt" xmlns:xlink="http://www.w3.org/1999/xlink" height="354.331pt" xmlns="http://www.w3.org/2000/svg">
 <defs>
  <path d="M2.07031 10 L0.664063 10 L0.664063 4.61906 C0.664063 3.88344 0.872396 3.32682 1.28906 2.94922 C1.70573 2.57161 2.26724 2.38281 2.97359 2.38281 C3.54328 2.38281 4.02911 2.53417 4.43109 2.83688 C4.83318 3.13958 5.03422 3.59042 5.03422 4.18938 C5.03422 4.51167 4.99109 4.7526 4.90484 4.91219 C4.81859 5.07167 4.73151 5.22057 4.64359 5.35891 C4.55568 5.49724 4.51172 5.69172 4.51172 5.94234 C4.51172 6.10839 4.58578 6.2663 4.73391 6.41609 C4.88203 6.56578 5.05292 6.72448 5.24656 6.89219 C5.44031 7.05979 5.6112 7.25427 5.75922 7.47562 C5.90734 7.69698 5.98141 7.96063 5.98141 8.26656 C5.98141 8.84927 5.79344 9.30016 5.4175 9.61922 C5.04156 9.93818 4.50365 10.0977 3.80375 10.0977 C3.55313 10.0977 3.29594 10.0724 3.03219 10.0219 C2.76854 9.97146 2.57161 9.90557 2.44141 9.82422 L2.71 8.70609 C3.01927 8.87536 3.37406 8.96 3.77438 8.96 C4.30823 8.96 4.57516 8.73698 4.57516 8.29094 C4.57516 8.0924 4.50109 7.91906 4.35297 7.77094 C4.20495 7.62281 4.03328 7.47307 3.83797 7.32172 C3.64266 7.17036 3.47094 6.99219 3.32281 6.78719 C3.17469 6.58208 3.10062 6.32161 3.10062 6.00578 C3.10062 5.71932 3.14536 5.49474 3.23484 5.33203 C3.32443 5.16922 3.41396 5.01297 3.50344 4.86328 C3.59292 4.71349 3.63766 4.51328 3.63766 4.26266 C3.63766 4.03484 3.56604 3.85422 3.42281 3.72078 C3.27958 3.58724 3.09729 3.52047 2.87594 3.52047 C2.62531 3.52047 2.42839 3.60349 2.28516 3.76953 C2.14193 3.93557 2.07031 4.22693 2.07031 4.64359 L2.07031 10 Z" id="GlRoboto-Bold134"/>
 </defs>
 <g inkscape:label="Background" id="Background" inkscape:groupmode="layer">
  <path d="M0 0 L866.999 0 L866.999 366.5 L0 366.5 L0 0 Z" transform="translate(-6.501, -3.752)" style="fill:#4b4a48; fill-rule:evenodd;stroke-width:1; stroke-linecap:butt; stroke-linejoin:miter; stroke-dasharray:none; stroke:#171615;"/>
  <g transform="translate(330.499, 53.749)">
   <use xlink:href="#GlRoboto-Bold134" transform="matrix(29.8 0 0 29.8 0 -71.0078)" style="fill:#ffffff;stroke:none;"/>
   <path d="M0 0 L264 0 L264 321.5 L0 321.5 L0 0 Z" style="fill:none; stroke:none;"/>
  </g>
 </g>
</svg>
