<?xml version="1.0" encoding="UTF-8"?>
<svg version="1.1" xmlns:xlink="http://www.w3.org/1999/xlink" xmlns="http://www.w3.org/2000/svg" xmlns:inkscape="http://www.inkscape.org/namespaces/inkscape" width="841.89pt" height="595.276pt" viewBox="0 0 841.89 595.276">
 <defs>
  <path id="GlRobotoSlab-Thin53" d="M5.05375 4.6875 L5.05375 3.54484 C4.49703 3.08109 3.75984 2.78812 2.84187 2.78812 C1.51859 2.78812 0.644531 3.47656 0.644531 4.48734 C0.644531 5.5225 1.20609 5.99125 2.82719 6.44047 C4.44344 6.88969 5.01953 7.40234 5.01953 8.29594 C5.01953 9.20891 4.12594 9.83891 2.87594 9.83891 C2.19234 9.83891 1.45516 9.64359 0.752031 9.19922 L0.752031 8.09563 L0.488281 8.09563 L0.488281 9.35063 C1.26469 9.87297 2.11422 10.1025 2.87594 10.1025 C4.25781 10.1025 5.28812 9.41406 5.28812 8.28609 C5.28812 7.16797 4.4775 6.61125 2.90047 6.18656 C1.27937 5.75188 0.908281 5.28313 0.908281 4.4775 C0.908281 3.72063 1.60156 3.05172 2.84187 3.05172 C3.60359 3.05172 4.28219 3.26656 4.79 3.69141 L4.79 4.6875 L5.05375 4.6875 Z"/>
  <path id="GlRobotoSlab-Thin54" d="M5.83016 2.89063 L0.390625 2.89063 L0.390625 4.32125 L0.654375 4.32125 L0.654375 3.15422 L2.97859 3.15422 L2.97859 9.73625 L2.18266 9.73625 L2.18266 10 L4.03812 10 L4.03812 9.73625 L3.24219 9.73625 L3.24219 3.15422 L5.56641 3.15422 L5.56641 4.32125 L5.83016 4.32125 L5.83016 2.89063 Z"/>
  <path id="GlRobotoSlab-Thin52" d="M3.16406 2.89547 L0.346719 2.89547 L0.346719 3.15922 L1.14266 3.15922 L1.14266 9.74125 L0.346719 9.74125 L0.346719 10.0048 L2.20219 10.0048 L2.20219 9.74125 L1.40625 9.74125 L1.40625 6.665 L3.32516 6.665 C4.55078 6.665 5.23438 7.23625 5.23438 8.19828 L5.23438 8.89641 C5.23438 9.51656 5.43953 10 6.06937 10 L6.31844 10 L6.31844 9.73625 L6.06937 9.73625 C5.69344 9.73625 5.49812 9.46781 5.49812 8.90625 L5.49812 8.18844 C5.49812 7.29484 5.08797 6.70406 4.06734 6.52828 C4.95125 6.33297 5.49812 5.60062 5.49812 4.79984 C5.49812 3.55469 4.66312 2.89547 3.16406 2.89547 L3.16406 2.89547 Z M1.40625 6.40141 L1.40625 3.15922 L3.16406 3.15922 C4.53609 3.15922 5.23438 3.74016 5.23438 4.79984 C5.23438 5.71281 4.56547 6.40141 3.11531 6.40141 L1.40625 6.40141 Z"/>
  <path id="GlRobotoSlab-Thin129" d="M6.53328 6.48922 L6.53328 6.40141 C6.53328 5.21484 6.16703 4.23828 5.54203 3.59375 L6.10844 2.70016 L5.78609 2.70016 L5.33688 3.40813 C4.84859 3.01266 4.23344 2.78812 3.55469 2.78812 C1.78219 2.78812 0.585938 4.21875 0.585938 6.40141 L0.585938 6.48922 C0.585938 7.69531 0.942344 8.66703 1.58688 9.30656 L0.917969 10.3663 L1.24031 10.3663 L1.79203 9.49219 C2.27547 9.8975 2.88094 10.1025 3.56453 10.1025 C5.32719 10.1025 6.53328 8.67672 6.53328 6.48922 L6.53328 6.48922 Z M0.854531 6.48922 L0.854531 6.39156 C0.854531 4.37984 1.91406 3.05172 3.55469 3.05172 C4.19437 3.05172 4.75094 3.25687 5.19531 3.62797 L1.75297 9.05266 L1.72359 9.04781 C1.16219 8.48625 0.854531 7.58781 0.854531 6.48922 L0.854531 6.48922 Z M6.26953 6.39156 L6.26953 6.48922 C6.26953 8.51563 5.21 9.83891 3.56453 9.83891 C2.92484 9.83891 2.37797 9.64359 1.93359 9.2725 L5.38094 3.84766 L5.41016 3.8525 C5.95703 4.41406 6.26953 5.3125 6.26953 6.39156 Z"/>
  <path id="GlRobotoSlab-Thin47" d="M7.47078 3.34469 L7.5 3.35453 L7.5 9.73625 L6.70406 9.73625 L6.70406 10 L8.55953 10 L8.55953 9.73625 L7.76375 9.73625 L7.76375 3.15422 L8.55953 3.15422 L8.55953 2.89063 L7.37797 2.89063 L4.45797 9.58 L4.42875 9.58 L1.51859 2.89063 L0.346719 2.89063 L0.346719 3.15422 L1.14266 3.15422 L1.14266 9.73625 L0.346719 9.73625 L0.346719 10 L2.20219 10 L2.20219 9.73625 L1.40625 9.73625 L1.40625 3.38859 L1.43562 3.37891 L4.34078 10 L4.55078 10 L7.47078 3.34469 Z"/>
  <path id="GlRoboto-LightItalic70" d="M3.49609 10 C3.47661 9.87625 3.47172 9.75255 3.48141 9.62891 L3.52047 9.26266 C3.27641 9.5263 2.99729 9.73302 2.68312 9.88281 C2.36896 10.0326 2.03125 10.1042 1.67 10.0977 C1.24677 10.0879 0.890313 9.95276 0.600625 9.69234 C0.310938 9.43193 0.180729 9.08036 0.21 8.63766 C0.2425 8.20151 0.396302 7.85812 0.671406 7.6075 C0.94651 7.35677 1.27854 7.17932 1.6675 7.07516 C2.05646 6.97099 2.4349 6.91891 2.80281 6.91891 L3.87703 6.92375 L3.96484 6.32328 C4.00714 5.94891 3.92901 5.65432 3.73047 5.43953 C3.53193 5.22464 3.24547 5.11229 2.87109 5.1025 C2.52276 5.09604 2.19802 5.18396 1.89688 5.36625 C1.59583 5.54854 1.40625 5.81708 1.32813 6.17188 L0.756875 6.17188 C0.828438 5.6575 1.08802 5.26687 1.53563 5 C1.98323 4.73302 2.4463 4.60443 2.92484 4.61422 C3.44245 4.62401 3.85583 4.78026 4.165 5.08297 C4.47427 5.38568 4.60125 5.80396 4.54594 6.33781 L4.10641 8.98922 L4.06734 9.41406 C4.05432 9.58979 4.06734 9.76396 4.10641 9.93656 L4.09672 10 L3.49609 10 L3.49609 10 Z M1.76266 9.585 C2.15005 9.59469 2.50323 9.50354 2.82219 9.31156 C3.14125 9.11948 3.40172 8.86391 3.60359 8.54484 L3.80375 7.37297 L2.87109 7.36813 C2.60089 7.36813 2.31115 7.40151 2.00188 7.46828 C1.69271 7.53495 1.42339 7.6562 1.19391 7.83203 C0.964427 8.00776 0.833385 8.26005 0.800781 8.58891 C0.768281 8.89161 0.848854 9.13089 1.0425 9.30672 C1.23615 9.48245 1.4762 9.57521 1.76266 9.585 Z"/>
  <path id="GlRoboto-Regular5" d=""/>
  <path id="GlRoboto-Bold49" d="M5.21 8.81828 L5.21 10 L0.634844 10 L0.634844 2.89063 L2.10453 2.89063 L2.10453 8.81828 L5.21 8.81828 Z"/>
  <path id="GlRoboto-Bold94" d="M1.20125 12.1337 C1.01896 12.1337 0.810625 12.1029 0.57625 12.0411 L0.57625 10.9717 L0.795937 10.9766 C1.0726 10.9766 1.27766 10.9318 1.41109 10.8422 C1.54464 10.7527 1.64557 10.6103 1.71391 10.415 L1.87016 10.0098 L0.0195313 4.71672 L1.53812 4.71672 L2.51953 8.00781 L3.49609 4.71672 L5.00484 4.71672 L2.89063 10.7911 C2.82875 10.9668 2.7376 11.1596 2.61719 11.3695 C2.49677 11.5795 2.32344 11.7594 2.09719 11.9091 C1.87094 12.0589 1.57229 12.1337 1.20125 12.1337 Z"/>
  <path id="GlRoboto-Bold73" d="M3.80859 10 L3.74031 9.43844 C3.39198 9.87792 2.94109 10.0977 2.38766 10.0977 C1.73339 10.0977 1.22557 9.84375 0.864219 9.33594 C0.502969 8.82813 0.322344 8.1901 0.322344 7.42188 L0.322344 7.31937 C0.322344 6.51531 0.502969 5.86427 0.864219 5.36625 C1.22557 4.86813 1.73667 4.61906 2.3975 4.61906 C2.91177 4.61906 3.33495 4.80953 3.66703 5.19047 L3.66703 2.5 L5.08297 2.5 L5.08297 10 L3.80859 10 L3.80859 10 Z M1.73828 7.42188 C1.73828 7.845 1.81313 8.20552 1.96281 8.50344 C2.1126 8.80125 2.37307 8.95016 2.74422 8.95016 C3.17391 8.95016 3.48151 8.76786 3.66703 8.40328 L3.66703 6.30859 C3.48797 5.94401 3.18359 5.76172 2.75391 5.76172 C2.38609 5.76172 2.12484 5.91146 1.97016 6.21094 C1.81557 6.51042 1.73828 6.91406 1.73828 7.42188 Z"/>
  <path id="GlRoboto-Bold5" d=""/>
  <path id="GlRoboto-Bold71" d="M5.30281 7.40719 C5.30281 8.19823 5.13271 8.84443 4.7925 9.34578 C4.45229 9.84703 3.9388 10.0977 3.25203 10.0977 C2.67911 10.0977 2.22172 9.87792 1.87984 9.43844 L1.81641 10 L0.542031 10 L0.542031 2.5 L1.95797 2.5 L1.95797 5.18547 C2.28682 4.80786 2.7149 4.61906 3.24219 4.61906 C3.93552 4.61906 4.45229 4.87135 4.7925 5.37594 C5.13271 5.88052 5.30281 6.52344 5.30281 7.30469 L5.30281 7.40719 L5.30281 7.40719 Z M2.88578 5.76172 C2.43984 5.76172 2.13057 5.94562 1.95797 6.31344 L1.95797 8.40328 C2.13057 8.77109 2.44307 8.955 2.89547 8.955 C3.28943 8.955 3.55391 8.81099 3.68891 8.52297 C3.82401 8.23484 3.89156 7.82875 3.89156 7.30469 C3.89156 6.88802 3.82401 6.52672 3.68891 6.22078 C3.55391 5.91474 3.2862 5.76172 2.88578 5.76172 Z"/>
  <path id="GlRoboto-Bold41" d="M0.634844 10 L0.634844 2.89063 L2.82719 2.89063 C3.78417 2.89063 4.56458 3.20313 5.16844 3.82813 C5.77229 4.45313 6.07422 5.27344 6.07422 6.28906 L6.07422 6.60641 C6.07422 7.62203 5.77229 8.44156 5.16844 9.065 C4.56458 9.68833 3.77766 10 2.80766 10 L0.634844 10 L0.634844 10 Z M2.10453 4.07719 L2.10453 8.81828 L2.80766 8.81828 C3.3838 8.81828 3.8224 8.63115 4.12344 8.25688 C4.42458 7.8825 4.57844 7.34698 4.585 6.65031 L4.585 6.27922 C4.585 5.55661 4.44255 5.01141 4.15766 4.64359 C3.87286 4.27568 3.44401 4.08688 2.87109 4.07719 L2.10453 4.07719 Z"/>
  <path id="GlRoboto-Bold78" d="M0.532188 3.34953 C0.532188 3.13797 0.603802 2.96302 0.747031 2.82469 C0.89026 2.68635 1.08229 2.61719 1.32313 2.61719 C1.56406 2.61719 1.75615 2.68635 1.89938 2.82469 C2.0426 2.96302 2.11422 3.13797 2.11422 3.34953 C2.11422 3.55786 2.0426 3.73125 1.89938 3.86969 C1.75615 4.00802 1.56406 4.07719 1.32313 4.07719 C1.08229 4.07719 0.89026 4.00802 0.747031 3.86969 C0.603802 3.73125 0.532188 3.55786 0.532188 3.34953 L0.532188 3.34953 Z M2.03609 4.71672 L2.03609 10 L0.620156 10 L0.620156 4.71672 L2.03609 4.71672 Z"/>
  <path id="GlRoboto-Bold88" d="M3.40328 8.53516 C3.40328 8.38536 3.33411 8.25922 3.19578 8.15672 C3.05745 8.05422 2.76042 7.95411 2.30469 7.85641 C1.76104 7.73922 1.31505 7.55693 0.966719 7.30953 C0.61849 7.06214 0.444375 6.71219 0.444375 6.25969 C0.444375 5.82031 0.630729 5.43703 1.00344 5.10984 C1.37615 4.78266 1.8913 4.61906 2.54891 4.61906 C3.23568 4.61906 3.77599 4.78021 4.16984 5.1025 C4.5638 5.42479 4.76078 5.83172 4.76078 6.32328 L3.34969 6.32328 C3.34969 6.12141 3.28458 5.95375 3.15437 5.82031 C3.02417 5.68687 2.82068 5.62016 2.54391 5.62016 C2.30953 5.62016 2.12641 5.67469 1.99453 5.78375 C1.86276 5.89271 1.79688 6.02859 1.79688 6.19141 C1.79688 6.34109 1.86688 6.46479 2.00687 6.5625 C2.14688 6.6601 2.40568 6.74635 2.78328 6.82125 C3.3562 6.93521 3.83146 7.10938 4.20906 7.34375 C4.58667 7.57813 4.77547 7.95734 4.77547 8.48141 C4.77547 8.94693 4.57526 9.33271 4.17484 9.63875 C3.77443 9.94469 3.23406 10.0977 2.55375 10.0977 C1.81479 10.0977 1.25 9.90807 0.859375 9.52891 C0.46875 9.14964 0.273438 8.74516 0.273438 8.31547 L1.61625 8.31547 C1.62927 8.59214 1.73099 8.79068 1.92141 8.91109 C2.11182 9.03151 2.33234 9.09172 2.58297 9.09172 C3.12984 9.09172 3.40328 8.9062 3.40328 8.53516 Z"/>
  <path id="GlRoboto-Bold83" d="M2.82234 5.76172 C2.42193 5.76172 2.12406 5.93099 1.92875 6.26953 L1.92875 10 L0.517656 10 L0.517656 4.71672 L1.84078 4.71672 L1.88969 5.32219 C2.26729 4.85344 2.77349 4.61906 3.40828 4.61906 C3.9063 4.61906 4.30828 4.76719 4.61422 5.06344 C4.92026 5.35969 5.0749 5.87563 5.07813 6.61125 L5.07813 10 L3.66219 10 L3.66219 6.63078 C3.66219 6.29224 3.58974 6.06276 3.44484 5.94234 C3.29995 5.82193 3.09245 5.76172 2.82234 5.76172 Z"/>
  <path id="GlRoboto-Bold76" d="M2.62703 12.0802 C2.30797 12.0802 1.95719 12.0134 1.57469 11.8798 C1.19219 11.7464 0.887031 11.5381 0.659219 11.2548 L1.28422 10.3955 C1.63255 10.7861 2.06062 10.9814 2.56844 10.9814 C2.94271 10.9814 3.23401 10.8813 3.44234 10.6811 C3.65068 10.481 3.75484 10.1954 3.75484 9.82422 L3.75484 9.54094 C3.42286 9.91208 2.99484 10.0977 2.47078 10.0977 C1.81641 10.0977 1.2988 9.84703 0.917969 9.34578 C0.537135 8.84443 0.343438 8.21615 0.336875 7.46094 L0.336875 7.31937 C0.336875 6.51531 0.528125 5.86427 0.910625 5.36625 C1.29313 4.86813 1.81641 4.61906 2.48047 4.61906 C3.06318 4.61906 3.51568 4.81766 3.83797 5.21484 L3.89156 4.71672 L5.17094 4.71672 L5.17094 9.81938 C5.17094 10.5453 4.93573 11.1036 4.46531 11.4942 C3.995 11.8848 3.38224 12.0802 2.62703 12.0802 L2.62703 12.0802 Z M1.74812 7.42188 C1.74812 7.845 1.83516 8.20552 2.00922 8.50344 C2.18339 8.80125 2.45604 8.95016 2.82719 8.95016 C3.25687 8.95016 3.56609 8.7874 3.75484 8.46187 L3.75484 6.24516 C3.56932 5.92286 3.26333 5.76172 2.83688 5.76172 C2.46906 5.76172 2.19563 5.91229 2.01656 6.21344 C1.8376 6.51448 1.74812 6.88312 1.74812 7.31937 L1.74812 7.42188 Z"/>
  <path id="GlRoboto-LightItalic85" d="M2.44141 10.1025 C2.13547 10.096 1.84901 10.031 1.58203 9.90734 C1.31516 9.78359 1.0987 9.59151 0.932656 9.33109 L0.444375 12.0313 L-0.136719 12.0313 L1.13281 4.71672 L1.67484 4.71672 L1.53812 5.46391 C2.00365 4.8812 2.57656 4.59958 3.25687 4.61906 C3.73865 4.63208 4.09833 4.78021 4.33594 5.06344 C4.57365 5.34667 4.72505 5.69339 4.79016 6.10359 C4.85526 6.5137 4.86661 6.91245 4.82422 7.29984 C4.67453 8.40005 4.29531 9.20083 3.68656 9.70219 C3.35125 9.97885 2.9362 10.1123 2.44141 10.1025 L2.44141 10.1025 Z M3.10062 5.12203 C2.73281 5.11224 2.41297 5.20177 2.14109 5.39063 C1.86932 5.57937 1.64391 5.82677 1.46484 6.13281 L1.03516 8.68656 C1.24682 9.27896 1.68141 9.58495 2.33891 9.60453 C2.72953 9.61422 3.05344 9.5125 3.31062 9.29937 C3.56781 9.08615 3.77125 8.81026 3.92094 8.47172 C4.07073 8.13318 4.17651 7.74255 4.23828 7.29984 C4.27089 7.00682 4.27089 6.69266 4.23828 6.35734 C4.20578 6.02536 4.10323 5.73896 3.93063 5.49812 C3.75813 5.25719 3.48146 5.13182 3.10062 5.12203 Z"/>
  <path id="GlRoboto-LightItalic87" d="M3.07141 5.16109 C2.71005 5.15786 2.37146 5.26776 2.05563 5.49078 C1.7399 5.7137 1.52995 6.00094 1.42578 6.3525 L0.800781 10 L0.219844 10 L1.13781 4.71672 L1.70906 4.71672 L1.53812 5.54203 C1.72042 5.25557 1.94339 5.02609 2.20703 4.85359 C2.47078 4.68099 2.77677 4.59958 3.125 4.60938 C3.24875 4.6126 3.38385 4.63375 3.53031 4.67281 L3.44734 5.205 L3.07141 5.16109 Z"/>
  <path id="GlRoboto-LightItalic84" d="M0.375938 7.47063 L0.390625 7.30953 C0.445937 6.84401 0.585885 6.40375 0.810469 5.98875 C1.03516 5.57375 1.3363 5.23849 1.71391 4.98297 C2.09151 4.72734 2.53422 4.60604 3.04203 4.61906 C3.53026 4.62885 3.92411 4.76318 4.22359 5.02203 C4.52307 5.28078 4.73302 5.6112 4.85344 6.01328 C4.97396 6.41526 5.01469 6.83271 4.97562 7.26563 L4.94625 7.50484 C4.88448 7.96714 4.73802 8.39766 4.50687 8.79641 C4.27573 9.19516 3.9738 9.515 3.60109 9.75594 C3.22839 9.99677 2.79625 10.1107 2.30469 10.0977 C1.81969 10.0879 1.42823 9.95443 1.13031 9.69734 C0.8325 9.44016 0.621719 9.11302 0.497969 8.71594 C0.374323 8.31875 0.333646 7.90365 0.375938 7.47063 L0.375938 7.47063 Z M0.957031 7.47063 C0.924531 7.79292 0.944896 8.11604 1.01812 8.44 C1.09135 8.76385 1.23375 9.03568 1.44531 9.25547 C1.65688 9.47516 1.95313 9.59151 2.33406 9.60453 C2.73438 9.61422 3.07938 9.51167 3.36906 9.29688 C3.65885 9.08198 3.88839 8.80526 4.05766 8.46672 C4.22693 8.12818 4.33432 7.78151 4.37984 7.42672 L4.39453 7.27047 C4.42714 6.94818 4.40677 6.62349 4.33344 6.29641 C4.26021 5.96922 4.11781 5.69333 3.90625 5.46875 C3.69469 5.24417 3.39682 5.12698 3.01266 5.11719 C2.61557 5.10417 2.2738 5.20589 1.98734 5.42234 C1.70089 5.6388 1.47302 5.91385 1.30375 6.2475 C1.13448 6.58115 1.02703 6.92542 0.981406 7.28031 L0.957031 7.47063 Z"/>
  <path id="GlRoboto-LightItalic79" d="M1.35266 3.18844 C1.35911 3.08104 1.40219 2.98828 1.48188 2.91016 C1.56167 2.83203 1.65693 2.79135 1.76766 2.78812 C1.87828 2.78812 1.97021 2.82635 2.04344 2.90281 C2.11677 2.97927 2.15016 3.07448 2.14359 3.18844 C2.1338 3.29583 2.08823 3.38698 2.00687 3.46188 C1.92552 3.53677 1.83115 3.57583 1.72375 3.57906 C1.61302 3.57906 1.52104 3.54167 1.44781 3.46687 C1.37458 3.39198 1.34286 3.29917 1.35266 3.18844 L1.35266 3.18844 Z M1.18656 4.71672 L1.76766 4.71672 L0.766719 10.6298 C0.708073 11.0693 0.55099 11.4347 0.295469 11.7261 C0.0399479 12.0174 -0.325469 12.1598 -0.800781 12.1533 C-0.950469 12.1468 -1.12625 12.1143 -1.32813 12.0556 L-1.27922 11.5625 C-1.09693 11.6146 -0.955365 11.6406 -0.854531 11.6406 C-0.542031 11.6504 -0.30276 11.556 -0.136719 11.3573 C0.0293229 11.1588 0.13349 10.9163 0.175781 10.6298 L1.18656 4.71672 Z"/>
  <path id="GlRoboto-LightItalic74" d="M4.22375 9.16984 C3.73219 9.80141 3.08927 10.1107 2.295 10.0977 C1.82302 10.0879 1.43729 9.95766 1.13781 9.70703 C0.838333 9.45641 0.625104 9.13578 0.498125 8.74516 C0.371146 8.35453 0.325573 7.94599 0.361406 7.51953 L0.380937 7.30469 C0.429792 6.86198 0.564063 6.43313 0.78375 6.01812 C1.00344 5.60302 1.29641 5.26281 1.66266 4.9975 C2.02891 4.73219 2.45615 4.60604 2.94437 4.61906 C3.39365 4.62885 3.7501 4.75177 4.01375 4.98781 C4.2774 5.22375 4.45969 5.52484 4.56062 5.89109 C4.66156 6.25734 4.69411 6.63901 4.65828 7.03609 L4.61437 7.3925 L0.957031 7.3925 L0.9425 7.50969 C0.900104 7.82875 0.920417 8.14698 1.00344 8.46438 C1.08646 8.78177 1.23781 9.04792 1.4575 9.26281 C1.67729 9.4776 1.97109 9.58984 2.33891 9.59953 C2.90536 9.61589 3.41646 9.37828 3.87219 8.88672 L4.22375 9.16984 L4.22375 9.16984 Z M2.91516 5.11719 C2.39755 5.0976 1.98573 5.27828 1.67969 5.65922 C1.37375 6.04005 1.15568 6.45182 1.02547 6.89453 L4.08703 6.89938 L4.09672 6.82609 C4.1488 6.41922 4.07964 6.03594 3.88922 5.67625 C3.6988 5.31656 3.37411 5.13021 2.91516 5.11719 Z"/>
  <path id="GlRoboto-LightItalic72" d="M2.25094 9.60453 C2.64812 9.61422 2.99073 9.50516 3.27875 9.27734 C3.56688 9.04943 3.75979 8.74667 3.8575 8.36906 L4.39938 8.36422 C4.30823 8.89161 4.05516 9.31563 3.64016 9.63625 C3.22516 9.95688 2.75234 10.1123 2.22172 10.1025 C1.73339 10.0928 1.34844 9.95776 1.06688 9.69734 C0.785312 9.43682 0.592448 9.10802 0.488281 8.71094 C0.384115 8.31375 0.353177 7.90198 0.395469 7.47562 L0.415 7.26563 C0.467083 6.80667 0.598125 6.37375 0.808125 5.96687 C1.01812 5.5599 1.30214 5.23026 1.66016 4.97797 C2.01828 4.72568 2.44958 4.60604 2.95406 4.61906 C3.49771 4.63208 3.92823 4.81438 4.24563 5.16594 C4.56302 5.5175 4.71193 5.96188 4.69234 6.49906 L4.14547 6.49406 C4.15526 6.11323 4.05438 5.79099 3.84281 5.52734 C3.63125 5.2637 3.32688 5.12698 2.92969 5.11719 C2.52604 5.10417 2.18828 5.20427 1.91641 5.4175 C1.64464 5.63073 1.43224 5.90417 1.27922 6.23781 C1.1263 6.57146 1.0287 6.91406 0.986406 7.26563 L0.961875 7.47063 C0.929375 7.78969 0.939948 8.1112 0.993594 8.43516 C1.04734 8.75901 1.17266 9.03161 1.36953 9.25297 C1.56651 9.47432 1.86031 9.59151 2.25094 9.60453 Z"/>
  <path id="GlRoboto-LightItalic89" d="M2.29 10.0195 C2.1175 10.0684 1.92385 10.0912 1.70906 10.088 C1.30865 10.0814 1.0474 9.93818 0.925312 9.65828 C0.803229 9.37828 0.75849 9.0625 0.791094 8.71094 L1.37203 5.19531 L0.429688 5.19531 L0.517656 4.71672 L1.45016 4.71672 L1.68953 3.35938 L2.28031 3.35938 L2.04109 4.71672 L3.09578 4.71672 L3.01266 5.19531 L1.95797 5.19531 L1.37203 8.71578 C1.35255 8.91766 1.36557 9.10891 1.41109 9.28953 C1.45672 9.47016 1.60161 9.56375 1.84578 9.57031 C1.92714 9.57354 2.085 9.56052 2.31937 9.53125 L2.29 10.0195 Z"/>
 </defs>
 <g id="Baggrund" inkscape:label="Baggrund" inkscape:groupmode="layer">
  <g transform="translate(40.999, 72.999)">
   <use transform="matrix(22 0 0 22 0 -59.3943)" style="fill:#ffffff;stroke:none;" xlink:href="#GlRobotoSlab-Thin53"/>
   <use transform="matrix(22 0 0 22 127 -59.3943)" style="fill:#ffffff;stroke:none;" xlink:href="#GlRobotoSlab-Thin54"/>
   <use transform="matrix(22 0 0 22 264.1 -59.3943)" style="fill:#ffffff;stroke:none;" xlink:href="#GlRobotoSlab-Thin52"/>
   <use transform="matrix(22 0 0 22 410.6 -59.3943)" style="fill:#ffffff;stroke:none;" xlink:href="#GlRobotoSlab-Thin129"/>
   <use transform="matrix(22 0 0 22 562.1 -59.3943)" style="fill:#ffffff;stroke:none;" xlink:href="#GlRobotoSlab-Thin47"/>
   <path d="M0 0 L762 0 L762 253 L0 253 L0 0 Z" style="fill:none; stroke:none;"/>
  </g>
  <g transform="translate(40.999, 271.999)">
   <use transform="matrix(6.4 0 0 6.4 46.875 -15.99)" style="fill:#ffffff;stroke:none;" xlink:href="#GlRoboto-LightItalic70"/>
   <use transform="matrix(6.4 0 0 6.4 80.075 -15.99)" style="fill:#ffffff;stroke:none;" xlink:href="#GlRoboto-Regular5"/>
   <use transform="matrix(6.4 0 0 6.4 95.875 -15.99)" style="fill:#ffffff;stroke:none;" xlink:href="#GlRoboto-Bold49"/>
   <use transform="matrix(6.4 0 0 6.4 126.575 -15.99)" style="fill:#ffffff;stroke:none;" xlink:href="#GlRoboto-Bold94"/>
   <use transform="matrix(6.4 0 0 6.4 158.175 -15.99)" style="fill:#ffffff;stroke:none;" xlink:href="#GlRoboto-Bold73"/>
   <use transform="matrix(6.4 0 0 6.4 194.175 -15.99)" style="fill:#ffffff;stroke:none;" xlink:href="#GlRoboto-Bold5"/>
   <use transform="matrix(6.4 0 0 6.4 210.075 -15.99)" style="fill:#ffffff;stroke:none;" xlink:href="#GlRoboto-Bold71"/>
   <use transform="matrix(6.4 0 0 6.4 245.675 -15.99)" style="fill:#ffffff;stroke:none;" xlink:href="#GlRoboto-Bold94"/>
   <use transform="matrix(6.4 0 0 6.4 277.775 -15.99)" style="fill:#ffffff;stroke:none;" xlink:href="#GlRoboto-Bold5"/>
   <use transform="matrix(6.4 0 0 6.4 293.675 -15.99)" style="fill:#ffffff;stroke:none;" xlink:href="#GlRoboto-Bold41"/>
   <use transform="matrix(6.4 0 0 6.4 335.275 -15.99)" style="fill:#ffffff;stroke:none;" xlink:href="#GlRoboto-Bold78"/>
   <use transform="matrix(6.4 0 0 6.4 352.175 -15.99)" style="fill:#ffffff;stroke:none;" xlink:href="#GlRoboto-Bold88"/>
   <use transform="matrix(6.4 0 0 6.4 385.075 -15.99)" style="fill:#ffffff;stroke:none;" xlink:href="#GlRoboto-Bold88"/>
   <use transform="matrix(6.4 0 0 6.4 417.975 -15.99)" style="fill:#ffffff;stroke:none;" xlink:href="#GlRoboto-Bold78"/>
   <use transform="matrix(6.4 0 0 6.4 434.875 -15.99)" style="fill:#ffffff;stroke:none;" xlink:href="#GlRoboto-Bold83"/>
   <use transform="matrix(6.4 0 0 6.4 470.675 -15.99)" style="fill:#ffffff;stroke:none;" xlink:href="#GlRoboto-Bold76"/>
   <use transform="matrix(6.4 0 0 6.4 507.175 -15.99)" style="fill:#ffffff;stroke:none;" xlink:href="#GlRoboto-Regular5"/>
   <use transform="matrix(6.4 0 0 6.4 522.975 -15.99)" style="fill:#ffffff;stroke:none;" xlink:href="#GlRoboto-LightItalic85"/>
   <use transform="matrix(6.4 0 0 6.4 557.375 -15.99)" style="fill:#ffffff;stroke:none;" xlink:href="#GlRoboto-LightItalic87"/>
   <use transform="matrix(6.4 0 0 6.4 577.575 -15.99)" style="fill:#ffffff;stroke:none;" xlink:href="#GlRoboto-LightItalic84"/>
   <use transform="matrix(6.4 0 0 6.4 612.375 -15.99)" style="fill:#ffffff;stroke:none;" xlink:href="#GlRoboto-LightItalic79"/>
   <use transform="matrix(6.4 0 0 6.4 626.475 -15.99)" style="fill:#ffffff;stroke:none;" xlink:href="#GlRoboto-LightItalic74"/>
   <use transform="matrix(6.4 0 0 6.4 658.475 -15.99)" style="fill:#ffffff;stroke:none;" xlink:href="#GlRoboto-LightItalic72"/>
   <use transform="matrix(6.4 0 0 6.4 690.475 -15.99)" style="fill:#ffffff;stroke:none;" xlink:href="#GlRoboto-LightItalic89"/>
   <path d="M0 0 L758 0 L758 283 L0 283 L0 0 Z" style="fill:none; stroke:none;"/>
  </g>
 </g>
</svg>
